<svg width="116" height="34" viewBox="0 0 116 34" fill="none" xmlns="http://www.w3.org/2000/svg">
<path d="M41.6473 10.28C42.2073 10.28 42.7007 10.3067 43.1273 10.36C43.5673 10.4133 43.974 10.5 44.3473 10.62C44.7207 10.7267 45.1007 10.88 45.4873 11.08C45.5807 11.1333 45.634 11.18 45.6473 11.22C45.674 11.2467 45.694 11.3467 45.7073 11.52L45.9473 13.9C45.9473 13.9267 45.914 13.9533 45.8473 13.98C45.7807 13.9933 45.734 13.9733 45.7073 13.92C45.4007 12.8133 44.9073 11.98 44.2273 11.42C43.5607 10.86 42.6807 10.58 41.5873 10.58C40.454 10.58 39.4607 10.8267 38.6073 11.32C37.7673 11.8133 37.1073 12.5133 36.6273 13.42C36.1607 14.3267 35.9273 15.3933 35.9273 16.62C35.9273 17.5 36.074 18.3267 36.3673 19.1C36.674 19.86 37.094 20.5333 37.6273 21.12C38.1607 21.6933 38.7673 22.14 39.4473 22.46C40.1407 22.78 40.874 22.94 41.6473 22.94C42.754 22.94 43.6473 22.6733 44.3273 22.14C45.0073 21.5933 45.5207 20.78 45.8673 19.7C45.8807 19.66 45.9207 19.6467 45.9873 19.66C46.0673 19.6733 46.1073 19.6933 46.1073 19.72L45.9073 21.92C45.894 22.08 45.874 22.18 45.8473 22.22C45.8207 22.26 45.7673 22.3067 45.6873 22.36C44.994 22.7067 44.3407 22.94 43.7273 23.06C43.114 23.1933 42.4207 23.26 41.6473 23.26C40.234 23.26 38.9807 22.9867 37.8873 22.44C36.8073 21.88 35.954 21.1067 35.3273 20.12C34.714 19.12 34.4073 17.9667 34.4073 16.66C34.4073 15.7 34.5873 14.8333 34.9473 14.06C35.3073 13.2733 35.814 12.6 36.4673 12.04C37.1207 11.48 37.8873 11.0467 38.7673 10.74C39.6473 10.4333 40.6073 10.28 41.6473 10.28ZM46.7383 23C46.6983 23 46.6783 22.96 46.6783 22.88C46.6783 22.8 46.6983 22.76 46.7383 22.76C47.2583 22.76 47.5983 22.6733 47.7583 22.5C47.9183 22.3133 47.9983 21.94 47.9983 21.38V11.04C47.9983 10.5733 47.9516 10.2333 47.8583 10.02C47.7649 9.79333 47.5983 9.68 47.3583 9.68C47.1583 9.68 46.8516 9.77333 46.4383 9.96C46.3983 9.98667 46.3583 9.96 46.3183 9.88C46.2783 9.8 46.2849 9.75333 46.3383 9.74L48.8983 8.52C48.9249 8.50667 48.9583 8.5 48.9983 8.5C49.0249 8.5 49.0583 8.52 49.0983 8.56C49.1516 8.58667 49.1783 8.62 49.1783 8.66V21.38C49.1783 21.94 49.2516 22.3133 49.3983 22.5C49.5449 22.6733 49.8849 22.76 50.4183 22.76C50.4583 22.76 50.4783 22.8 50.4783 22.88C50.4783 22.96 50.4583 23 50.4183 23C50.1916 23 49.9183 22.9933 49.5983 22.98C49.2783 22.9667 48.9383 22.96 48.5783 22.96C48.2316 22.96 47.8916 22.9667 47.5583 22.98C47.2383 22.9933 46.9649 23 46.7383 23ZM50.9545 23C50.9279 23 50.9145 22.96 50.9145 22.88C50.9145 22.8 50.9279 22.76 50.9545 22.76C51.4745 22.76 51.8145 22.6733 51.9745 22.5C52.1479 22.3133 52.2345 21.94 52.2345 21.38V17.64C52.2345 17.1733 52.1879 16.8333 52.0945 16.62C52.0012 16.3933 51.8279 16.28 51.5745 16.28C51.4679 16.28 51.3412 16.3067 51.1945 16.36C51.0479 16.4 50.8745 16.4667 50.6745 16.56C50.6212 16.5733 50.5745 16.5467 50.5345 16.48C50.5079 16.4 50.5145 16.3467 50.5545 16.32L53.1545 15.12C53.1945 15.1067 53.2212 15.1 53.2345 15.1C53.2612 15.1 53.2945 15.12 53.3345 15.16C53.3745 15.1867 53.3945 15.22 53.3945 15.26C53.3945 15.3667 53.3879 15.6267 53.3745 16.04C53.3612 16.4533 53.3545 16.98 53.3545 17.62V21.38C53.3545 21.94 53.4279 22.3133 53.5745 22.5C53.7345 22.6733 54.0812 22.76 54.6145 22.76C54.6545 22.76 54.6745 22.8 54.6745 22.88C54.6745 22.96 54.6545 23 54.6145 23C54.3745 23 54.0945 22.9933 53.7745 22.98C53.4679 22.9667 53.1412 22.96 52.7945 22.96C52.4479 22.96 52.1145 22.9667 51.7945 22.98C51.4879 22.9933 51.2079 23 50.9545 23ZM52.6345 12.76C52.3679 12.76 52.1545 12.6867 51.9945 12.54C51.8345 12.3933 51.7545 12.1867 51.7545 11.92C51.7545 11.6533 51.8345 11.4467 51.9945 11.3C52.1545 11.1533 52.3679 11.08 52.6345 11.08C52.9012 11.08 53.1079 11.1533 53.2545 11.3C53.4012 11.4467 53.4745 11.6533 53.4745 11.92C53.4745 12.48 53.1945 12.76 52.6345 12.76ZM58.7833 23.24C57.8766 23.24 57.1366 23.0467 56.5633 22.66C55.9899 22.26 55.5633 21.76 55.2833 21.16C55.0166 20.5467 54.8833 19.9267 54.8833 19.3C54.8833 18.6333 55.0099 18.04 55.2633 17.52C55.5299 17 55.8766 16.56 56.3033 16.2C56.7299 15.84 57.2033 15.5667 57.7233 15.38C58.2433 15.1933 58.7499 15.1 59.2433 15.1C59.6299 15.1 59.9966 15.1533 60.3433 15.26C60.7033 15.3533 60.9966 15.4933 61.2233 15.68C61.4633 15.8667 61.5833 16.08 61.5833 16.32C61.5833 16.4933 61.5233 16.6467 61.4033 16.78C61.2833 16.9 61.1099 16.96 60.8833 16.96C60.6699 16.96 60.4899 16.8933 60.3433 16.76C60.2099 16.6267 60.0966 16.4733 60.0033 16.3C59.8566 16.06 59.6833 15.8667 59.4833 15.72C59.2833 15.5733 58.9833 15.5 58.5833 15.5C57.8233 15.5 57.2366 15.8 56.8233 16.4C56.4099 16.9867 56.2033 17.7533 56.2033 18.7C56.2033 19.38 56.3166 20.0133 56.5433 20.6C56.7833 21.1867 57.1499 21.66 57.6433 22.02C58.1366 22.3667 58.7766 22.54 59.5633 22.54C59.9233 22.54 60.2766 22.4933 60.6233 22.4C60.9699 22.3067 61.2966 22.1333 61.6033 21.88C61.6299 21.8533 61.6633 21.8667 61.7033 21.92C61.7566 21.9733 61.7699 22.0133 61.7433 22.04C61.2766 22.4533 60.8099 22.76 60.3433 22.96C59.8766 23.1467 59.3566 23.24 58.7833 23.24ZM61.7059 23C61.6659 23 61.6459 22.96 61.6459 22.88C61.6459 22.8 61.6659 22.76 61.7059 22.76C62.2259 22.76 62.5659 22.6733 62.7259 22.5C62.8859 22.3133 62.9659 21.94 62.9659 21.38V11.04C62.9659 10.5733 62.9193 10.2333 62.8259 10.02C62.7326 9.79333 62.5659 9.68 62.3259 9.68C62.1259 9.68 61.8193 9.77333 61.4059 9.96C61.3526 9.98667 61.3059 9.96 61.2659 9.88C61.2393 9.8 61.2526 9.75333 61.3059 9.74L63.8059 8.52C63.8459 8.50667 63.8793 8.5 63.9059 8.5C63.9459 8.5 63.9859 8.52 64.0259 8.56C64.0659 8.58667 64.0859 8.62 64.0859 8.66V21.38C64.0859 21.94 64.1659 22.3133 64.3259 22.5C64.4859 22.6733 64.8259 22.76 65.3459 22.76C65.3859 22.76 65.4059 22.8 65.4059 22.88C65.4059 22.96 65.3859 23 65.3459 23C65.1059 23 64.8326 22.9933 64.5259 22.98C64.2193 22.9667 63.8859 22.96 63.5259 22.96C63.1793 22.96 62.8459 22.9667 62.5259 22.98C62.2059 22.9933 61.9326 23 61.7059 23ZM66.7259 23C66.6993 23 66.6859 22.96 66.6859 22.88C66.6859 22.8 66.6993 22.76 66.7259 22.76C67.2059 22.76 67.5126 22.7 67.6459 22.58C67.7793 22.4467 67.7459 22.2333 67.5459 21.94L65.0059 18.48L65.9459 17.8L68.5459 21.38C68.9059 21.9 69.2793 22.26 69.6659 22.46C70.0659 22.66 70.4593 22.76 70.8459 22.76C70.8859 22.76 70.9059 22.8 70.9059 22.88C70.9059 22.96 70.8859 23 70.8459 23C70.6059 23 70.3326 22.9933 70.0259 22.98C69.7193 22.9667 69.3859 22.96 69.0259 22.96C68.5193 22.96 68.0859 22.9667 67.7259 22.98C67.3659 22.9933 67.0326 23 66.7259 23ZM63.7259 19.66L63.6459 19.42L66.7659 16.9C67.2859 16.4867 67.4926 16.1533 67.3859 15.9C67.2926 15.6467 66.9193 15.52 66.2659 15.52C66.2259 15.52 66.2059 15.48 66.2059 15.4C66.2059 15.32 66.2259 15.28 66.2659 15.28C66.5859 15.28 66.9059 15.2867 67.2259 15.3C67.5593 15.3133 67.9993 15.32 68.5459 15.32C69.0526 15.32 69.4526 15.3133 69.7459 15.3C70.0526 15.2867 70.3393 15.28 70.6059 15.28C70.6459 15.28 70.6659 15.32 70.6659 15.4C70.6659 15.48 70.6459 15.52 70.6059 15.52C70.2993 15.52 69.9593 15.5733 69.5859 15.68C69.2126 15.7733 68.8193 15.9267 68.4059 16.14C68.0059 16.3533 67.5926 16.6267 67.1659 16.96L63.7259 19.66Z" fill="black"/>
<path d="M70.0902 23C70.0502 23 70.0302 22.96 70.0302 22.88C70.0302 22.8 70.0502 22.76 70.0902 22.76C70.4902 22.76 70.7902 22.7267 70.9902 22.66C71.2035 22.5933 71.3635 22.46 71.4702 22.26C71.5768 22.06 71.6635 21.7667 71.7302 21.38L73.3502 12.12C73.4568 11.56 73.4435 11.1933 73.3102 11.02C73.1768 10.8333 72.8168 10.74 72.2302 10.74C72.1902 10.74 72.1702 10.7 72.1702 10.62C72.1702 10.54 72.1902 10.5 72.2302 10.5H79.9702C80.0768 10.5 80.1102 10.56 80.0702 10.68C80.0435 10.92 80.0035 11.2067 79.9502 11.54C79.8968 11.86 79.8435 12.1733 79.7902 12.48C79.7502 12.7867 79.7168 13.0333 79.6902 13.22C79.6768 13.2733 79.6302 13.2933 79.5502 13.28C79.4702 13.2667 79.4368 13.24 79.4502 13.2C79.4902 12.4933 79.3435 11.9267 79.0102 11.5C78.6768 11.06 78.2035 10.84 77.5902 10.84H76.3502C75.9502 10.84 75.6435 10.8733 75.4302 10.94C75.2302 11.0067 75.0835 11.1333 74.9902 11.32C74.9102 11.4933 74.8302 11.7667 74.7502 12.14L73.1502 21.3C73.0835 21.7 73.0768 22.0067 73.1302 22.22C73.1835 22.42 73.3502 22.56 73.6302 22.64C73.9235 22.72 74.3768 22.76 74.9902 22.76C75.0168 22.76 75.0302 22.8 75.0302 22.88C75.0302 22.96 75.0168 23 74.9902 23C74.6702 23 74.2768 22.9933 73.8102 22.98C73.3435 22.9667 72.7835 22.96 72.1302 22.96C71.7568 22.96 71.3902 22.9667 71.0302 22.98C70.6835 22.9933 70.3702 23 70.0902 23ZM77.7702 18.66C77.7568 18.7133 77.7102 18.74 77.6302 18.74C77.5502 18.7267 77.5168 18.6933 77.5302 18.64C77.6368 18.0533 77.5835 17.6267 77.3702 17.36C77.1568 17.0933 76.7702 16.96 76.2102 16.96H73.1902L73.2502 16.5H76.3502C76.8968 16.5 77.3035 16.3867 77.5702 16.16C77.8502 15.9333 78.0368 15.5667 78.1302 15.06C78.1435 14.9933 78.1902 14.9667 78.2702 14.98C78.3502 14.9933 78.3835 15.0267 78.3702 15.08C78.3168 15.48 78.2635 15.7933 78.2102 16.02C78.1702 16.2467 78.1235 16.4867 78.0702 16.74C78.0168 17.0467 77.9702 17.3533 77.9302 17.66C77.8902 17.9667 77.8368 18.3 77.7702 18.66ZM78.863 23.26C78.423 23.26 78.083 23.1 77.843 22.78C77.6163 22.46 77.5496 21.9267 77.643 21.18C77.7496 20.4733 77.983 19.76 78.343 19.04C78.703 18.32 79.1363 17.6533 79.643 17.04C80.163 16.4267 80.7163 15.94 81.303 15.58C81.8896 15.2067 82.4496 15.02 82.983 15.02C83.2363 15.02 83.4896 15.0667 83.743 15.16C83.9963 15.2533 84.2096 15.4067 84.383 15.62C84.5696 15.82 84.6763 16.0933 84.703 16.44L83.743 15.86C83.9296 15.8333 84.1363 15.7267 84.363 15.54C84.5896 15.34 84.7563 15.1133 84.863 14.86C84.8896 14.82 84.9363 14.8133 85.003 14.84C85.083 14.8533 85.1163 14.8733 85.103 14.9L83.943 21.22C83.8096 21.9533 83.8963 22.32 84.203 22.32C84.3496 22.32 84.5296 22.24 84.743 22.08C84.9696 21.92 85.2096 21.7133 85.463 21.46C85.503 21.42 85.5496 21.4267 85.603 21.48C85.6563 21.5333 85.663 21.58 85.623 21.62C85.1963 22.1133 84.803 22.5 84.443 22.78C84.083 23.0467 83.7296 23.18 83.383 23.18C83.023 23.18 82.7896 23.0333 82.683 22.74C82.5763 22.4333 82.583 21.9267 82.703 21.22L83.183 18.42L83.543 18.08C83.183 19.12 82.7363 20.0333 82.203 20.82C81.683 21.5933 81.1296 22.1933 80.543 22.62C79.9696 23.0467 79.4096 23.26 78.863 23.26ZM79.763 22.12C80.123 22.12 80.4896 21.9867 80.863 21.72C81.2363 21.44 81.5896 21.0733 81.923 20.62C82.2696 20.1667 82.563 19.6733 82.803 19.14C83.0563 18.6067 83.2296 18.1 83.323 17.62C83.4296 17.0867 83.383 16.6533 83.183 16.32C82.9963 15.9733 82.6696 15.8067 82.203 15.82C81.763 15.82 81.323 16.0067 80.883 16.38C80.443 16.7533 80.0496 17.26 79.703 17.9C79.3563 18.5267 79.123 19.2467 79.003 20.06C78.8963 20.78 78.9096 21.3067 79.043 21.64C79.1763 21.96 79.4163 22.12 79.763 22.12ZM87.1334 22.82L86.9334 22.8C87.0534 22.1733 87.2068 21.5067 87.3934 20.8C87.5801 20.0933 87.7934 19.4067 88.0334 18.74C88.2734 18.06 88.5334 17.4467 88.8134 16.9C89.0934 16.3533 89.3801 15.92 89.6734 15.6C89.9801 15.2667 90.2934 15.1 90.6134 15.1C90.8001 15.1 90.9868 15.1533 91.1734 15.26C91.3734 15.3533 91.5334 15.4867 91.6534 15.66C91.7734 15.8333 91.8134 16.0267 91.7734 16.24C91.7468 16.4133 91.6668 16.56 91.5334 16.68C91.4134 16.8 91.2534 16.86 91.0534 16.86C90.8534 16.86 90.6934 16.8067 90.5734 16.7C90.4668 16.5933 90.3668 16.4867 90.2734 16.38C90.1934 16.2733 90.0801 16.22 89.9334 16.22C89.7601 16.22 89.5668 16.3733 89.3534 16.68C89.1401 16.9867 88.9201 17.3867 88.6934 17.88C88.4668 18.3733 88.2468 18.92 88.0334 19.52C87.8334 20.1067 87.6534 20.6933 87.4934 21.28C87.3334 21.8533 87.2134 22.3667 87.1334 22.82ZM86.3534 23.16C86.1401 23.16 86.0001 23.1467 85.9334 23.12C85.8668 23.0933 85.8334 23.06 85.8334 23.02C85.8334 22.98 85.8668 22.8 85.9334 22.48C86.0134 22.16 86.0801 21.84 86.1334 21.52L86.8534 17.58C86.9334 17.14 86.9601 16.8067 86.9334 16.58C86.9201 16.3533 86.8734 16.1933 86.7934 16.1C86.7134 15.9933 86.6134 15.94 86.4934 15.94C86.3334 15.94 86.1468 16.02 85.9334 16.18C85.7334 16.3267 85.5268 16.5 85.3134 16.7C85.2734 16.74 85.2268 16.7333 85.1734 16.68C85.1201 16.6267 85.1134 16.58 85.1534 16.54C85.5801 16.0467 85.9734 15.6867 86.3334 15.46C86.6934 15.22 87.0468 15.1 87.3934 15.1C87.6468 15.1 87.8401 15.1733 87.9734 15.32C88.1201 15.4667 88.2001 15.7133 88.2134 16.06C88.2401 16.4067 88.2001 16.88 88.0934 17.48L87.1334 22.82C87.0934 23.0467 86.8334 23.16 86.3534 23.16ZM101.428 23.18C101.055 23.18 100.821 23.0267 100.728 22.72C100.635 22.4133 100.648 21.9133 100.768 21.22L101.348 18.04C101.468 17.32 101.481 16.7867 101.388 16.44C101.295 16.08 101.081 15.9 100.748 15.9C100.361 15.9 99.948 16.1667 99.508 16.7C99.0813 17.22 98.668 18 98.268 19.04C97.8813 20.0667 97.5546 21.3267 97.288 22.82L97.008 22.8C97.2746 21.2267 97.6346 19.8533 98.088 18.68C98.5546 17.5067 99.0813 16.6067 99.668 15.98C100.255 15.34 100.868 15.02 101.508 15.02C102.041 15.02 102.401 15.2267 102.588 15.64C102.788 16.0533 102.801 16.7267 102.628 17.66L101.988 21.22C101.921 21.62 101.915 21.9067 101.968 22.08C102.035 22.24 102.141 22.32 102.288 22.32C102.435 22.32 102.608 22.24 102.808 22.08C103.021 21.92 103.261 21.7133 103.528 21.46C103.581 21.4067 103.635 21.4067 103.688 21.46C103.741 21.5133 103.741 21.5667 103.688 21.62C103.261 22.1133 102.868 22.5 102.508 22.78C102.148 23.0467 101.788 23.18 101.428 23.18ZM92.088 23.16C91.8746 23.16 91.7346 23.1467 91.668 23.12C91.6013 23.0933 91.568 23.06 91.568 23.02C91.568 22.98 91.6013 22.8133 91.668 22.52C91.748 22.2133 91.8146 21.9 91.868 21.58L92.688 17.06C92.8213 16.3133 92.7146 15.94 92.368 15.94C92.2213 15.94 92.0346 16.02 91.808 16.18C91.5813 16.3267 91.328 16.54 91.048 16.82C91.008 16.8733 90.9613 16.8733 90.908 16.82C90.8546 16.7533 90.848 16.7 90.888 16.66C91.3546 16.1267 91.7746 15.7333 92.148 15.48C92.5346 15.2267 92.908 15.1 93.268 15.1C93.628 15.1 93.8546 15.2467 93.948 15.54C94.0546 15.8333 94.048 16.3067 93.928 16.96L92.888 22.82C92.8346 23.0467 92.568 23.16 92.088 23.16ZM96.508 23.16C96.2946 23.16 96.1546 23.1467 96.088 23.12C96.0213 23.0933 95.988 23.06 95.988 23.02C95.988 22.98 96.0213 22.8 96.088 22.48C96.168 22.16 96.2346 21.84 96.288 21.52L96.948 18.02C97.0546 17.3 97.0546 16.7667 96.948 16.42C96.8546 16.0733 96.648 15.9 96.328 15.9C95.9413 15.9 95.528 16.1733 95.088 16.72C94.648 17.2667 94.2346 18.0533 93.848 19.08C93.4613 20.1067 93.1413 21.3533 92.888 22.82L92.588 22.8C92.8546 21.24 93.2146 19.88 93.668 18.72C94.1346 17.5467 94.6613 16.64 95.248 16C95.8346 15.3467 96.4546 15.02 97.108 15.02C97.6146 15.02 97.968 15.2267 98.168 15.64C98.3813 16.04 98.4013 16.7067 98.228 17.64L97.288 22.82C97.2613 23.0467 97.0013 23.16 96.508 23.16ZM104.462 23.26C104.022 23.26 103.682 23.1 103.442 22.78C103.216 22.46 103.149 21.9267 103.242 21.18C103.349 20.4733 103.582 19.76 103.942 19.04C104.302 18.32 104.736 17.6533 105.242 17.04C105.762 16.4267 106.316 15.94 106.902 15.58C107.489 15.2067 108.049 15.02 108.582 15.02C108.836 15.02 109.089 15.0667 109.342 15.16C109.596 15.2533 109.809 15.4067 109.982 15.62C110.169 15.82 110.276 16.0933 110.302 16.44L109.342 15.86C109.529 15.8333 109.736 15.7267 109.962 15.54C110.189 15.34 110.356 15.1133 110.462 14.86C110.489 14.82 110.536 14.8133 110.602 14.84C110.682 14.8533 110.716 14.8733 110.702 14.9L109.542 21.22C109.409 21.9533 109.496 22.32 109.802 22.32C109.949 22.32 110.129 22.24 110.342 22.08C110.569 21.92 110.809 21.7133 111.062 21.46C111.102 21.42 111.149 21.4267 111.202 21.48C111.256 21.5333 111.262 21.58 111.222 21.62C110.796 22.1133 110.402 22.5 110.042 22.78C109.682 23.0467 109.329 23.18 108.982 23.18C108.622 23.18 108.389 23.0333 108.282 22.74C108.176 22.4333 108.182 21.9267 108.302 21.22L108.782 18.42L109.142 18.08C108.782 19.12 108.336 20.0333 107.802 20.82C107.282 21.5933 106.729 22.1933 106.142 22.62C105.569 23.0467 105.009 23.26 104.462 23.26ZM105.362 22.12C105.722 22.12 106.089 21.9867 106.462 21.72C106.836 21.44 107.189 21.0733 107.522 20.62C107.869 20.1667 108.162 19.6733 108.402 19.14C108.656 18.6067 108.829 18.1 108.922 17.62C109.029 17.0867 108.982 16.6533 108.782 16.32C108.596 15.9733 108.269 15.8067 107.802 15.82C107.362 15.82 106.922 16.0067 106.482 16.38C106.042 16.7533 105.649 17.26 105.302 17.9C104.956 18.5267 104.722 19.2467 104.602 20.06C104.496 20.78 104.509 21.3067 104.642 21.64C104.776 21.96 105.016 22.12 105.362 22.12Z" fill="#2A5C45"/>
<path d="M3 8.6C3 5.50721 5.50721 3 8.6 3H25.4C28.4928 3 31 5.50721 31 8.6V25.4C31 28.4928 28.4928 31 25.4 31H8.6C5.50721 31 3 28.4928 3 25.4V8.6Z" fill="url(#paint0_linear_112_2)"/>
<path d="M14.9817 22.2511L22.197 14.9607C23.0747 14.0738 23.0747 12.6358 22.197 11.7489C21.3192 10.862 19.8961 10.862 19.0183 11.7489L11.803 19.0394C10.9253 19.9263 10.9253 21.3642 11.803 22.2511L10.3962 23.6726L10.3199 23.5934C8.76694 21.9428 8.76688 19.3476 10.3198 17.697L10.3962 17.6178L17.6115 10.3274C19.2662 8.65542 21.9491 8.65542 23.6038 10.3274L23.6802 10.4065C25.2582 12.0838 25.2327 14.7364 23.6038 16.3822L16.3886 23.6726L16.3102 23.7497C14.6502 25.3441 12.0251 25.3185 10.3962 23.6726L11.803 22.2511C12.6808 23.138 14.1039 23.138 14.9817 22.2511Z" fill="white"/>
<path d="M16.4242 23.5987C14.7695 25.2707 12.0937 25.2778 10.4476 23.6146C8.8016 21.9515 8.80867 19.2478 10.4634 17.5758L14.4057 13.5924L20.3665 19.6153L16.4242 23.5987Z" fill="white"/>
<defs>
<linearGradient id="paint0_linear_112_2" x1="31" y1="31" x2="3" y2="3" gradientUnits="userSpaceOnUse">
<stop stop-color="#2A5C45"/>
<stop offset="1" stop-color="#59C292"/>
</linearGradient>
</defs>
</svg>
